<?xml version="1.0" encoding="UTF-8"?>
<svg version="1.1" xmlns="http://www.w3.org/2000/svg" width="1280" height="1280">
<path d="M0 0 C1.32 0.33 2.64 0.66 4 1 C4.0309375 2.051875 4.0309375 2.051875 4.0625 3.125 C5.2780256 6.85261185 7.22818847 8.13828088 10.234375 10.52734375 C12.51024926 12.42558401 14.15961582 14.68467797 16 17 C17.45554513 18.19678156 18.91212187 19.39243927 20.38183594 20.57177734 C22.17096332 22.15089551 23.6605959 23.84362092 25.203125 25.6640625 C28.93846178 29.98352197 32.88914327 34.03756675 36.9375 38.0625 C37.60201172 38.73087891 38.26652344 39.39925781 38.95117188 40.08789062 C42.92532117 44.05433061 47.00625023 47.82341824 51.28930664 51.45483398 C53.80673366 53.7286738 55.83054745 56.39665695 58 59 C59.27453636 60.14437094 60.56777536 61.2681163 61.875 62.375 C65.42350847 65.38889325 68.39388591 68.65355853 71.390625 72.20703125 C73.3809643 74.42442382 75.66479552 76.16014192 78 78 C78 78.66 78 79.32 78 80 C78.66 80 79.32 80 80 80 C80 80.66 80 81.32 80 82 C80.5775 82.226875 81.155 82.45375 81.75 82.6875 C84.59530878 84.34726345 85.93653334 86.42066667 88 89 C90.09207039 90.8667705 92.22574996 92.6675424 94.390625 94.44921875 C94.92171875 94.96097656 95.4528125 95.47273438 96 96 C96 96.66 96 97.32 96 98 C96.66 98 97.32 98 98 98 C98.53625 98.680625 99.0725 99.36125 99.625 100.0625 C101.61249878 102.52072218 103.42167013 104.29624889 105.8125 106.3125 C108.63245037 108.71545217 111.10863762 111.17085961 113.5 114 C116.41478272 117.44474322 119.57499801 120.29592855 123.015625 123.203125 C125.7272898 125.6585695 128.03596172 128.38344869 130.359375 131.203125 C131.97914107 133.09659467 131.97914107 133.09659467 134.203125 134.609375 C134.79609375 135.06828125 135.3890625 135.5271875 136 136 C136 136.66 136 137.32 136 138 C136.60199219 138.26425781 137.20398438 138.52851563 137.82421875 138.80078125 C140.1195344 140.06588341 141.18597098 141.15769933 142.8125 143.1875 C146.5195372 147.57147443 150.50717042 151.62921069 154.5625 155.6875 C155.19969971 156.32905029 155.83689941 156.97060059 156.4934082 157.6315918 C159.38510913 160.51505532 162.27631717 163.27765575 165.46484375 165.83203125 C166.30144531 166.54746094 167.13804687 167.26289063 168 168 C168 168.66 168 169.32 168 170 C168.66 170 169.32 170 170 170 C171.2340748 171.43419504 172.46215372 172.87445743 173.64453125 174.3515625 C175.6035632 176.73401634 177.79296711 178.84814293 180 181 C180.73476563 181.74507812 181.46953125 182.49015625 182.2265625 183.2578125 C184.78699549 185.78939554 187.40467668 188.22877137 190.0625 190.65625 C195.19526908 195.34653898 200.10125826 200.0200569 204.55859375 205.37109375 C206.77715126 207.8782441 209.42761199 209.86546527 212 212 C212.97866115 213.10736179 213.93614385 214.23369509 214.875 215.375 C216.9695163 217.90844595 219.14134236 220.06863112 221.65234375 222.1875 C226.21330036 226.12688785 230.45240523 230.34070395 234.6875 234.625 C235.42033203 235.36234375 236.15316406 236.0996875 236.90820312 236.859375 C238.3182273 238.27829923 239.72698587 239.69848262 241.13427734 241.12011719 C242.69207685 242.68973983 244.26074187 244.24856919 245.83203125 245.8046875 C247.65166722 247.64727384 249.34739512 249.5093623 251 251.5 C254.81200013 255.98754445 258.93478567 259.95079075 263.375 263.8125 C267.07481761 267.06366863 270.27878407 270.50883619 273.453125 274.265625 C275.05271408 276.15625549 275.05271408 276.15625549 277.5 278 C279.69268544 279.75414835 281.21459877 281.3645201 283 283.5 C287.24513237 288.4838228 292.07168851 292.78066123 296.9140625 297.16796875 C299.69643681 299.6952454 302.35796326 302.32579933 305 305 C305.763125 305.721875 306.52625 306.44375 307.3125 307.1875 C309 309 309 309 309 311 C309.60328125 311.26425781 310.2065625 311.52851563 310.828125 311.80078125 C313.1042287 313.05755074 314.16818433 314.15440162 315.75 316.1875 C317.90411228 318.80359147 320.10390734 321.05738046 322.6875 323.25 C326.26820092 326.30228681 329.6555633 329.50629467 333 332.8125 C333.49330811 333.29299805 333.98661621 333.77349609 334.49487305 334.26855469 C335.70337387 335.47342125 336.85689633 336.73292002 338 338 C338 338.66 338 339.32 338 340 C338.66 340 339.32 340 340 340 C341.55078125 341.609375 341.55078125 341.609375 343.3125 343.75 C345.30558414 346.10060645 347.08647948 348.06918358 349.5 350 C351.69268544 351.75414835 353.21459877 353.3645201 355 355.5 C358.75954042 359.92201451 362.96729476 363.756717 367.29296875 367.61132812 C369.91262853 369.96902193 372.35140852 372.32475943 374.5859375 375.0546875 C376.91884369 377.90098405 379.38285926 380.4156464 382 383 C494 495 494 495 496.69909668 497.70384216 C498.45771551 499.45883394 500.22657926 501.18161606 502.05078125 502.8671875 C502.58509766 503.36089844 503.11941406 503.85460937 503.66992188 504.36328125 C504.48299805 505.11158203 504.48299805 505.11158203 505.3125 505.875 C505.84294922 506.36613281 506.37339844 506.85726563 506.91992188 507.36328125 C509.80681094 510.02544243 512.73025827 512.62427074 515.71875 515.171875 C519.10687029 518.12128393 522.28162977 521.2483365 525.41796875 524.4609375 C525.88789749 524.94106293 526.35782623 525.42118835 526.84199524 525.91586304 C528.78853427 527.90784439 530.73263398 529.90184299 532.6628418 531.90966797 C534.09296623 533.39425748 535.53547408 534.86583726 536.98046875 536.3359375 C537.82504639 537.20782715 538.66962402 538.0797168 539.53979492 538.97802734 C542.13610665 541.4355101 542.13610665 541.4355101 547 542 C547 545.96 547 549.92 547 554 C546.11398946 554.24128091 545.22797891 554.48256181 544.31511956 554.73115426 C540.66922726 556.12660164 538.78304153 557.62589749 535.95808697 560.30153179 C535.4561158 560.77494813 534.95414464 561.24836447 534.43696223 561.73612676 C525.88502114 569.8731895 517.57742725 578.26927749 509.23086251 586.61586449 C506.54151408 589.30413194 503.84930697 591.9895342 501.15749043 594.67532986 C495.83202924 599.98978335 490.50922385 605.30688935 485.18726328 610.62484814 C478.80795947 616.99911845 472.42581037 623.37053718 466.04366625 629.74196344 C449.89916473 645.85970647 433.76048709 661.98327633 417.62262347 678.10766509 C413.2524221 682.47419282 408.88205641 686.84055606 404.51165366 691.20688224 C377.37272976 718.32055833 350.23540852 745.4358374 323.10288715 772.5559206 C316.82618345 778.82970316 310.54945653 785.10346249 304.27270508 791.37719727 C303.4929329 792.15659853 302.71316072 792.9359998 301.90975909 793.73901929 C276.59003502 819.0465699 251.2609244 844.34469935 225.92647374 869.63750708 C199.87241459 895.6488184 173.82640828 921.66816426 147.79109428 947.69823876 C144.11779776 951.37079482 140.44441615 955.04326575 136.77098656 958.71568871 C136.04804113 959.43844352 135.32509571 960.16119832 134.58024285 960.9058548 C122.93131281 972.55126711 111.27400565 984.18825893 99.61364948 995.82222915 C87.90865581 1007.50113324 76.21282929 1019.18915415 64.52637241 1030.88660751 C57.57804841 1037.84092504 50.62280454 1044.78815244 43.65759265 1051.72555643 C39.01138795 1056.35457593 34.37424694 1060.99254235 29.7444974 1065.63801937 C27.10295591 1068.2880135 24.45755007 1070.93381715 21.80106608 1073.56883923 C18.94480551 1076.40220725 16.10809991 1079.25436613 13.27303028 1082.10893726 C12.43841045 1082.93070787 11.60379063 1083.75247848 10.74387929 1084.59915122 C5.42682398 1089.84065889 5.42682398 1089.84065889 4 1097 C2.125 1096.875 2.125 1096.875 0 1096 C-0.19747198 1095.17874878 -0.39494396 1094.35749755 -0.59839994 1093.51135993 C-2.71403284 1088.21116853 -6.534446 1084.91639152 -10.55060101 1080.94324112 C-11.45071469 1080.03701407 -12.35082838 1079.13078703 -13.27821824 1078.19709855 C-15.78444633 1075.67442849 -18.30301236 1073.16439836 -20.82372026 1070.65620816 C-23.56101475 1067.92814001 -26.28672225 1065.18853628 -29.01391393 1062.45037532 C-33.79778471 1057.65049619 -38.58908613 1052.85813547 -43.38529778 1048.07058907 C-50.51732939 1040.95140835 -57.6379324 1033.82087865 -64.75632429 1026.68806301 C-77.46886871 1013.95055585 -90.19294896 1001.22462168 -102.92202447 988.50363694 C-114.06159371 977.37113372 -125.1976581 966.2351401 -136.33019447 955.09560394 C-137.82208864 953.60279846 -139.31398308 952.10999325 -140.80587781 950.61718832 C-143.05387282 948.36781022 -145.30186383 946.11842812 -147.54984441 943.86903559 C-168.45624487 922.94964962 -189.36658383 902.034207 -210.28528881 881.12712479 C-211.07424477 880.3386068 -211.86320072 879.55008881 -212.67606444 878.73767634 C-219.0834429 872.3339049 -225.49093516 865.93024732 -231.89843469 859.52659702 C-256.89659036 834.54329096 -281.88290258 809.54819608 -306.85961914 784.54345703 C-334.90613224 756.4655377 -362.96083297 728.39583834 -391.0281561 700.33872008 C-394.01903412 697.34887888 -397.00988735 694.35901288 -400.0007267 691.369133 C-400.73718094 690.63292764 -401.47363519 689.89672228 -402.23240623 689.13820767 C-413.3641174 678.00994094 -424.48942851 666.87530265 -435.61159325 655.73749542 C-448.25564994 643.07569701 -460.90844335 630.42270483 -473.57301547 617.78142485 C-480.66476617 610.70220441 -487.74950507 603.61613178 -494.82444732 596.52011214 C-499.54669574 591.78517741 -504.27791737 587.05933929 -509.01664601 582.34089826 C-511.71921287 579.64939194 -514.41762699 576.95404756 -517.1052536 574.24761537 C-519.99688992 571.33593979 -522.90735823 568.44386226 -525.82019329 565.55339432 C-526.65634862 564.70524731 -527.49250395 563.8571003 -528.35399732 562.98325187 C-532.73546269 558.67072989 -535.85458299 555.9774094 -542 555 C-542.33 550.71 -542.66 546.42 -543 542 C-541 541 -541 541 -538.6875 541.3125 C-535.73068109 541.2683255 -535.73068109 541.2683255 -533.6875 538.4375 C-533.06089666 537.60376893 -533.06089666 537.60376893 -532.42163467 536.75319481 C-530.90178323 534.87887666 -529.28906048 533.436656 -527.44134521 531.88638306 C-522.48048096 527.61021058 -517.87501459 523.01514351 -513.25097656 518.38037109 C-512.30083945 517.43159226 -511.35049045 516.48302557 -510.39994812 515.53465271 C-507.84212226 512.98134864 -505.28742484 510.42493651 -502.7334528 507.8677783 C-500.05026777 505.18204455 -497.36462449 502.49877068 -494.67938232 499.81509399 C-490.17556976 495.31309488 -485.67385673 490.80900447 -481.17333984 486.30371094 C-475.9776023 481.10252243 -470.77825888 475.90495938 -465.57704759 470.70924509 C-461.09858235 466.23532264 -456.62207472 461.75944847 -452.14718795 457.28194678 C-449.47995816 454.61316193 -446.81206665 451.945048 -444.14240265 449.27869797 C-441.63500796 446.7741993 -439.13008627 444.26725283 -436.6270237 441.75842476 C-435.27452949 440.40398597 -433.91958421 439.05199612 -432.56455994 437.7000885 C-431.75444962 436.88715836 -430.94433929 436.07422821 -430.10968018 435.23666382 C-429.40844654 434.53505316 -428.70721291 433.8334425 -427.98472977 433.11057091 C-425.95799111 431.03134212 -425.95799111 431.03134212 -424.24314499 428.67270851 C-422.34824218 426.41493075 -420.55161545 424.68494231 -418.32312548 422.78771436 C-414.24493229 419.25336835 -410.39805259 415.54220641 -406.58684731 411.72386169 C-405.88260579 411.022272 -405.17836427 410.32068231 -404.45278209 409.59783232 C-402.1029449 407.25563044 -399.75663126 404.90993142 -397.41030884 402.56420898 C-395.70561587 400.86353435 -394.00071289 399.16307021 -392.29561841 397.46279812 C-388.10774214 393.28560089 -383.92219126 389.10608229 -379.73765316 384.92554174 C-374.72288272 379.91579872 -369.70526515 374.90891086 -364.6876485 369.90201882 C-351.99174363 357.23289515 -339.30168245 344.557924 -326.61242825 331.88213968 C-323.17589807 328.44928222 -319.73920306 325.01658981 -316.30247068 321.58393478 C-294.96303881 300.26975421 -273.62521065 278.95396952 -252.29218483 257.63337708 C-247.35513253 252.69924596 -242.41805705 247.76513805 -237.48095703 242.83105469 C-236.86760645 242.21807502 -236.25425587 241.60509534 -235.62231891 240.97354053 C-215.71505539 221.07844522 -195.79841272 201.19277314 -175.87641429 181.31243347 C-155.38994371 160.86872402 -134.91154083 140.41697018 -114.44382055 119.95448751 C-111.5550308 117.06643821 -108.66615595 114.17847404 -105.77723312 111.29055786 C-105.20868197 110.72219733 -104.64013083 110.15383679 -104.05435085 109.56825321 C-94.89734934 100.41476786 -85.73197925 91.26970633 -76.56354882 82.1276702 C-67.3561011 72.94633103 -58.15785035 63.7558589 -48.96894319 54.55596328 C-43.50721215 49.08824474 -38.03860636 43.6276177 -32.55997813 38.17682905 C-28.47472095 34.11080246 -24.40255369 30.03187539 -20.33543317 25.94771492 C-18.68457238 24.29403644 -17.0294361 22.64461338 -15.36972399 20.99981868 C-13.12082579 18.76990958 -10.8877688 16.52525634 -8.65810585 14.27613831 C-8.00465634 13.63553801 -7.35120682 12.99493772 -6.67795581 12.33492529 C-2.80707792 8.3890291 -1.04560202 5.45347307 0 0 Z M-6.67363644 65.05281067 C-7.66475995 66.03438156 -7.66475995 66.03438156 -8.67590615 67.03578216 C-10.90560518 69.25013939 -13.11691172 71.48201476 -15.32884216 73.71411133 C-16.93236475 75.31402412 -18.53698153 76.91284086 -20.14260155 78.51064873 C-24.56626225 82.91919062 -28.97409938 87.34326806 -33.37959683 91.76995063 C-37.64079299 96.04678288 -41.9136743 100.31188711 -46.18628976 104.5773033 C-54.92984155 113.30697519 -63.66154905 122.04840506 -72.3864727 130.79669189 C-81.03219099 139.46554218 -89.68261911 148.12964446 -98.33955574 156.78729248 C-98.87763019 157.32542038 -99.41570464 157.86354828 -99.97008438 158.41798308 C-102.15424562 160.60233293 -104.33844037 162.78664926 -106.52267984 164.97092088 C-127.02692035 185.47550245 -147.51776048 205.99342629 -168.00177674 226.51820987 C-186.20057018 244.75310789 -204.40782067 262.97951503 -222.62329102 281.19775391 C-223.20212275 281.77667715 -223.78095449 282.35560039 -224.37732659 282.95206676 C-226.12845842 284.70347503 -227.87959273 286.45488083 -229.63072723 288.20628643 C-231.95661182 290.53253406 -234.28249123 292.85878686 -236.60836697 295.18504333 C-237.18227415 295.75904075 -237.75618134 296.33303816 -238.34747966 296.92442944 C-256.28810733 314.8680401 -274.22148826 332.81889121 -292.15362394 350.77098792 C-298.10359952 356.72757781 -304.05403674 362.68370506 -310.00587726 368.63843155 C-310.5415717 369.17438717 -311.07726615 369.71034279 -311.62919376 370.26253949 C-312.16379084 370.7973957 -312.69838791 371.3322519 -313.2491849 371.88331586 C-323.5493824 382.18851243 -333.84645097 392.49681294 -344.13660651 402.81203777 C-348.83957313 407.52630791 -353.5441653 412.23893294 -358.25302315 416.94732094 C-362.56340001 421.25738948 -366.86912477 425.5720492 -371.17116881 429.89043462 C-372.72860362 431.45218766 -374.28771649 433.01226942 -375.84866791 434.57050765 C-377.97058891 436.68926048 -380.08627087 438.81405807 -382.20052242 440.94046021 C-383.11087101 441.84507161 -383.11087101 441.84507161 -384.03961048 442.76795799 C-387.60256246 446.3670253 -390.71847392 450.11535637 -393.6877411 454.2192834 C-401.61880599 464.9816253 -412.11106754 474.24441351 -421.5546875 483.65234375 C-423.02936499 485.12515034 -424.50381755 486.59818219 -425.97805786 488.07142639 C-429.82399038 491.91357766 -433.6729155 495.75271681 -437.52252197 499.59118652 C-441.44392851 503.50231721 -445.36246862 507.41631746 -449.28125 511.33007812 C-455.60165009 517.64173334 -461.92375797 523.95167161 -468.2481842 530.2592926 C-468.80290909 530.81257233 -469.35763397 531.36585205 -469.9291687 531.93589783 C-470.71195505 532.71471219 -470.71195505 532.71471219 -471.51055527 533.50926018 C-472.92994509 534.92988418 -474.33395002 536.36583043 -475.73709106 537.80250549 C-478.00726138 540.00705147 -480.2803929 541.41356252 -483 543 C-484.1979813 545.3959626 -484.10969297 546.717047 -483.9375 549.375 C-483.90527344 550.14585937 -483.87304688 550.91671875 -483.83984375 551.7109375 C-482.78757148 554.57899121 -481.27473611 555.13284303 -478.78586269 556.72676302 C-475.22581935 559.26490823 -472.25751011 562.47369822 -469.18539333 565.56851101 C-468.02747323 566.72296958 -468.02747323 566.72296958 -466.8461608 567.90075055 C-464.25150892 570.49009374 -461.66407322 573.08652977 -459.07652283 575.68296814 C-457.2026741 577.55594498 -455.3284322 579.42852063 -453.45370013 581.30061251 C-449.3737166 585.37645116 -445.29746038 589.45598791 -441.22362137 593.53796768 C-435.16569248 599.60796841 -429.10203666 605.6722238 -423.0371917 611.73531337 C-412.83397087 621.93590619 -402.63541262 632.14114863 -392.43949699 642.34904289 C-382.34023 652.46014439 -372.23889717 662.56917465 -362.13479805 672.67544746 C-361.19240299 673.61804875 -361.19240299 673.61804875 -360.23096964 674.57969248 C-357.04022628 677.77111252 -353.84944597 680.9624956 -350.65865142 684.15386445 C-328.05253077 706.76418688 -305.45105087 729.37914301 -282.85229492 751.99682617 C-260.90965038 773.95782708 -238.9649158 795.91673603 -217.01733398 817.87280273 C-216.34123707 818.5491627 -215.66514016 819.22552266 -214.96855547 819.92237838 C-208.17837122 826.71519987 -201.3881442 833.5079786 -194.5978857 840.30072586 C-180.75223184 854.15145612 -166.90686061 868.00246887 -153.06166077 881.85365295 C-152.10623999 882.8094856 -152.10623999 882.8094856 -151.13151779 883.78462799 C-112.58360299 922.34921888 -74.04119524 960.91931343 -35.50002807 999.49064773 C-34.68280473 1000.30850528 -33.86558138 1001.12636283 -33.02359369 1001.96900395 C-31.52457917 1003.46918421 -30.02557246 1004.96937228 -28.5265756 1006.46957019 C-27.86610507 1007.13055316 -27.20563455 1007.79153614 -26.52514976 1008.4725489 C-25.61179898 1009.38698308 -25.61179898 1009.38698308 -24.67999666 1010.31989067 C-23.61902167 1011.38093682 -22.55695003 1012.44088855 -21.49334825 1013.49930156 C-18.76930072 1016.21116875 -16.17266849 1018.99622658 -13.625 1021.875 C-10.87657858 1024.95781269 -8.09191573 1027.93987185 -5.125 1030.8125 C-2.56264444 1033.32134929 -0.65618287 1035.78505678 1 1039 C2.051875 1038.773125 3.10375 1038.54625 4.1875 1038.3125 C4.77917969 1038.18488281 5.37085938 1038.05726563 5.98046875 1037.92578125 C10.66751821 1035.7771725 14.05569699 1030.8580703 17.4453125 1027.0625 C25.618025 1018.04989754 34.31602789 1009.53329508 42.92675781 1000.94287109 C45.40124129 998.47414008 47.87113004 996.00086801 50.33976555 993.52629089 C52.7214758 991.14009259 55.10699396 988.75771654 57.4921875 986.375 C58.37244598 985.49271729 59.25270447 984.61043457 60.15963745 983.70141602 C60.98464752 982.87955811 61.80965759 982.0577002 62.65966797 981.2109375 C63.73908157 980.13271729 63.73908157 980.13271729 64.84030151 979.03271484 C67.12870989 976.87885785 69.53370858 974.94572604 72 973 C73.33089742 971.72729772 74.62618146 970.4158334 75.875 969.0625 C76.49117187 968.41410156 77.10734375 967.76570313 77.7421875 967.09765625 C79.1897351 965.07292462 79.1897351 965.07292462 79.0625 962.66015625 C77.53714088 958.84115052 74.95398274 956.26987873 72.125 953.375 C71.49094238 952.71274414 70.85688477 952.05048828 70.20361328 951.36816406 C67.81901778 948.89537195 65.41210887 946.44597217 63 944 C62.47688232 943.46934937 61.95376465 942.93869873 61.41479492 942.39196777 C57.24629618 938.16656839 53.06433803 933.95473229 48.875 929.75 C48.27705627 929.14919617 47.67911255 928.54839233 47.06304932 927.92938232 C45.33412447 926.19465194 43.60137061 924.4638472 41.8671875 922.734375 C41.34993103 922.21515472 40.83267456 921.69593445 40.29974365 921.16098022 C37.34346055 918.22326538 34.27838402 915.56923251 31 913 C29.31375058 911.35314893 27.64719065 909.68591771 26 908 C25.19820312 907.20980469 24.39640625 906.41960938 23.5703125 905.60546875 C19.74258188 901.82054023 15.97340525 898.05290907 12.5 893.9375 C7.61901791 888.24879037 2.02396138 882.80010933 -4.3125 878.75 C-9.22524915 875.55100055 -12.77066503 871.12844865 -16.52734375 866.69921875 C-19.292028 863.50919846 -22.20458217 860.63633426 -25.5 858 C-29.20132172 855.03894263 -32.34228751 851.8176966 -35.3125 848.125 C-37.32316619 845.65276578 -39.50979773 843.62558539 -41.9375 841.5625 C-45.17885307 838.80765396 -47.86790351 835.90123097 -50.56640625 832.625 C-52.80087175 830.09219987 -55.37435387 828.12286283 -58 826 C-59.68711423 824.3540349 -61.3545622 822.68762851 -63 821 C-64.66523789 819.33190578 -66.3321373 817.66546978 -68 816 C-68.97924924 815.02091592 -69.95841355 814.04174688 -70.9375 813.0625 C-71.44023438 812.55976562 -71.94296875 812.05703125 -72.4609375 811.5390625 C-83.15104167 800.84895833 -93.84114583 790.15885417 -104.53125 779.46875 C-105.31177734 778.68830322 -106.09230469 777.90785645 -106.89648438 777.10375977 C-108.13770473 775.86239535 -109.37869021 774.62079589 -110.61914062 773.37866211 C-112.56788505 771.42739153 -114.52538933 769.4877454 -116.5 767.5625 C-119 765 -119 765 -121.3125 762.125 C-123.30623313 759.67502073 -125.46619862 757.66714375 -127.875 755.625 C-131.42878017 752.60662927 -134.39946904 749.33126666 -137.41015625 745.78125 C-139.39928032 743.55264908 -141.62917428 741.80931437 -144 740 C-146.70734803 737.42801937 -149.13700196 734.8321726 -151.5 731.9375 C-153.84038392 729.18754889 -156.15908348 727.2017103 -159 725 C-161.53939051 722.5844822 -163.84311718 720.20100612 -166 717.4375 C-168.11878607 714.85522947 -170.37202922 713.05109914 -173 711 C-175.70734803 708.42801937 -178.13700196 705.8321726 -180.5 702.9375 C-182.84038392 700.18754889 -185.15908348 698.2017103 -188 696 C-190.53939051 693.5844822 -192.84311718 691.20100612 -195 688.4375 C-197.11878607 685.85522947 -199.37202922 684.05109914 -202 682 C-204.70734803 679.42801937 -207.13700196 676.8321726 -209.5 673.9375 C-211.84038392 671.18754889 -214.15908348 669.2017103 -217 667 C-219.53939051 664.5844822 -221.84311718 662.20100612 -224 659.4375 C-226.11878607 656.85522947 -228.37202922 655.05109914 -231 653 C-233.51815318 650.60468356 -235.8080407 648.24768942 -237.9375 645.5 C-240.34914516 642.57679375 -243.0672892 640.39404964 -246 638 C-248.5409604 635.58003771 -250.84091119 633.20383254 -253 630.4375 C-255.11878607 627.85522947 -257.37202922 626.05109914 -260 624 C-261.68762851 622.3545622 -263.3540349 620.68711423 -265 619 C-266.6652596 617.33192746 -268.33212165 615.66545411 -270 614 C-273.66666667 610.33333333 -277.33333333 606.66666667 -281 603 C-282.3303125 601.68708984 -282.3303125 601.68708984 -283.6875 600.34765625 C-286 598 -286 598 -288.5 594.9375 C-290.84038392 592.18754889 -293.15908348 590.2017103 -296 588 C-298.53939051 585.5844822 -300.84311718 583.20100612 -303 580.4375 C-305.11878607 577.85522947 -307.37202922 576.05109914 -310 574 C-312.70734803 571.42801937 -315.13700196 568.8321726 -317.5 565.9375 C-319.83599998 563.19270003 -322.15622997 561.18751541 -325 559 C-325.70125 558.278125 -326.4025 557.55625 -327.125 556.8125 C-328.9666059 554.77113594 -328.9666059 554.77113594 -332 554 C-332.19551338 552.39679026 -332.38111983 550.79237014 -332.5625 549.1875 C-332.66691406 548.29417969 -332.77132812 547.40085937 -332.87890625 546.48046875 C-333 544 -333 544 -332 541 C-330.61717808 539.63804388 -330.61717808 539.63804388 -328.76387215 538.13430023 C-322.41632453 532.73988949 -316.6450943 526.75517164 -310.77804565 520.85119629 C-309.43920999 519.50777969 -308.10013925 518.16459733 -306.76085484 516.82162809 C-303.8582385 513.91005409 -300.95723759 510.99688334 -298.05747223 508.08246994 C-293.33893427 503.34014239 -288.61684092 498.60136521 -283.89425659 493.86306763 C-277.92716561 487.87566849 -271.96094028 481.88740909 -265.99571206 475.89815408 C-254.28291865 464.13841163 -242.56268892 452.386105 -230.83963013 440.63659668 C-228.99350916 438.78624719 -227.14738924 436.93589664 -225.30127037 435.08554506 C-221.56443471 431.34018649 -217.82755922 427.59486766 -214.09066224 423.84957027 C-204.49269416 414.22999209 -194.89510367 404.6100374 -185.29833984 394.98925781 C-184.81705846 394.50677822 -184.33577707 394.02429864 -183.8399114 393.52719846 C-168.21242814 377.8606619 -152.59507647 362.18406749 -136.98236183 346.50281436 C-120.4699703 329.91806653 -103.94458537 313.34637777 -87.40584576 296.78789663 C-77.50210087 286.87141961 -67.60918352 276.9443831 -57.72974803 267.00368625 C-50.96697258 260.2008892 -44.191556 253.41085804 -37.40589033 246.63089389 C-33.4873193 242.71483133 -29.57477968 238.79318536 -25.67720032 234.85622025 C-22.11333979 231.2565844 -18.53390083 227.67326382 -14.94106235 224.10255736 C-13.64030537 222.80407645 -12.34552576 221.49957603 -11.05723213 220.18872863 C-9.31242757 218.41509273 -7.54766357 216.66414014 -5.77596855 214.91742706 C-5.27420949 214.39699306 -4.77245043 213.87655905 -4.25548655 213.34035432 C-1.69608084 210.86417954 -0.4511295 210.00197672 3.16576731 209.98612851 C6.19733965 211.07059302 7.2099075 211.78261482 9.12369156 214.30451679 C12.06259632 217.92159619 15.16289628 221.28776091 18.46007919 224.5775404 C18.96935418 225.08760314 19.47862918 225.59766587 20.00333674 226.12318506 C21.67375004 227.79350357 23.34733087 229.46061045 25.02093506 231.12773132 C26.24187189 232.34767086 27.46258447 233.56783486 28.68309331 234.78820258 C32.02271376 238.12618412 35.36543173 241.4610484 38.70866418 244.79541171 C42.31920803 248.3975015 45.92681534 252.00253015 49.53474426 255.60723877 C55.78206398 261.84826936 62.03110293 268.08757413 68.28121185 274.32581139 C77.32202498 283.34963213 86.35911189 292.37717746 95.39510432 301.40582512 C110.06214158 316.06092464 124.73068237 330.71451808 139.40087891 345.36645508 C140.27836482 346.24285087 141.15585074 347.11924666 142.05992714 348.02219991 C154.52472601 360.47137381 166.9910097 372.91905981 179.4578822 385.36615709 C180.33658088 386.24346246 181.21527956 387.12076783 182.12060547 388.0246582 C182.99823389 388.90089309 183.87586231 389.77712799 184.78008553 390.67991545 C199.40291089 405.27972239 214.02188869 419.88337488 228.63770509 434.49019843 C237.65320323 443.49983883 246.67195196 452.50620111 255.6948801 461.50840066 C261.87198809 467.67182104 268.04550359 473.83882427 274.21617666 480.0086871 C277.77851676 483.57032191 281.34249683 487.13027565 284.9108448 490.68589211 C288.17546094 493.93892109 291.43546214 497.19650092 294.69181326 500.45780275 C295.87226422 501.63840535 297.05442281 502.81730345 298.23842856 503.99434098 C299.84470239 505.59164641 301.4447091 507.19497931 303.04328537 508.79998302 C303.93449168 509.68988782 304.82569799 510.57979262 305.74391055 511.49666423 C308 514 308 514 309.65891576 516.79179794 C310.10147356 517.52050462 310.54403136 518.2492113 311 519 C313.44022767 519.70871683 313.44022767 519.70871683 316 519 C318.30041807 517.56029007 318.30041807 517.56029007 320.375 515.5 C321.08398438 514.8503125 321.79296875 514.200625 322.5234375 513.53125 C324.39900555 511.61426562 326.10664289 509.70294513 327.83056641 507.65893555 C332.70725414 502.06906788 338.03119901 496.938491 343.32684326 491.75081825 C346.53590671 488.60318795 349.72930738 485.439702 352.92578125 482.27929688 C356.97818514 478.27492214 361.0350702 474.27536596 365.10693359 470.29077148 C368.41526709 467.05253469 371.70888833 463.79997146 374.99307251 460.53725243 C376.24448277 459.29944484 377.50129494 458.06707407 378.76351929 456.84029579 C380.52044241 455.13144691 382.25799431 453.40496374 383.9921875 451.6730957 C384.51777756 451.17064835 385.04336761 450.66820099 385.58488464 450.15052795 C387.19767087 448.58289699 387.19767087 448.58289699 389 446 C388.73143995 441.81515279 387.28219937 439.72944057 384.46302795 436.72210693 C383.64221804 435.84602531 382.82140812 434.9699437 381.97572517 434.06731415 C375.58976179 427.45217228 369.09409195 420.94647018 362.59155273 414.44628906 C360.93800369 412.78974352 359.2846584 411.13299458 357.63150024 409.47605896 C353.16505506 405.0008238 348.69541264 400.52879548 344.22489047 396.0576334 C341.42898465 393.26101472 338.63379294 390.46368434 335.83885384 387.66609955 C326.58277716 378.40126443 317.32465593 369.13847985 308.06382286 359.87839904 C307.56621102 359.38082716 307.06859919 358.88325528 306.5559082 358.37060547 C306.0576823 357.87242045 305.5594564 357.37423543 305.04613275 356.8609539 C296.9616326 348.77686071 288.88214105 340.68778214 280.80488884 332.59644774 C272.49146144 324.26864175 264.17429588 315.94458527 255.85324436 307.62439704 C251.18945527 302.96086263 246.52722435 298.29579643 241.86886406 293.62683868 C237.49101996 289.23930569 233.10839008 284.85661005 228.72206497 280.47755623 C227.11594864 278.87248444 225.51152987 277.26571184 223.90896416 275.65709496 C221.71637723 273.45676751 219.51766911 271.26273851 217.31736755 269.07012939 C216.37517487 268.12022137 216.37517487 268.12022137 215.413948 267.15112329 C212.4374124 264.19743716 209.44836249 261.5208778 206.0538826 259.05430317 C201.56639036 255.77795253 197.72730164 251.99957769 193.82051086 248.0610199 C193.03724479 247.27946268 192.25397872 246.49790546 191.44697732 245.69266468 C188.83919559 243.08816149 186.23859875 240.47660388 183.63793945 237.86499023 C181.76355084 235.99003713 179.88876902 234.11548507 178.01348877 232.24142456 C173.98390513 228.21288661 169.95798265 224.18072004 165.93456459 220.1460247 C160.11203584 214.30718785 154.2839411 208.4739326 148.4545069 202.64199103 C138.98813122 193.17124393 129.52622416 183.69604549 120.06713867 174.21801758 C110.89434786 165.02687698 101.71946615 155.83783196 92.54174805 146.65161133 C91.9761607 146.08549853 91.41057334 145.51938573 90.82784698 144.936118 C87.98954484 142.09520511 85.15120108 139.2543338 82.31283629 136.4134835 C62.75553422 116.83897114 43.20266229 97.26004217 23.65434265 77.67655945 C22.83051328 76.85125089 22.00668392 76.02594234 21.15789002 75.17562443 C19.64095785 73.65594293 18.12405067 72.13623648 16.60717469 70.61649889 C13.07314491 67.07596674 9.53799951 63.53656538 6 60 C5.67 59.67 5.34 59.34 5 59 C-0.47053989 57.87600439 -3.14151553 61.44785256 -6.67363644 65.05281067 Z M-5.52169609 270.5622921 C-6.33953638 271.36673571 -7.15737667 272.17117931 -8 273 C-9.41367702 274.34273452 -9.41367702 274.34273452 -10.85591316 275.71259499 C-14.24259826 278.95957752 -17.55209657 282.28134043 -20.86352539 285.60473633 C-22.13536046 286.87385686 -23.40761963 288.14255251 -24.68026733 289.41085815 C-28.11197967 292.83350579 -31.5374 296.26238478 -34.96139836 299.69274735 C-38.54983032 303.28626232 -42.14316134 306.87487322 -45.73570251 310.46427917 C-51.75863515 316.48358215 -57.77735751 322.50707078 -63.79370117 328.53295898 C-70.75594423 335.50611929 -77.72540969 342.4719988 -84.69860274 349.43420774 C-90.68967462 355.41621944 -96.67686023 361.4020998 -102.6607818 367.39126414 C-106.23339056 370.96699515 -109.80734715 374.54135082 -113.38481331 378.11222267 C-116.7406835 381.4623373 -120.09166499 384.81726475 -123.43885422 388.17605209 C-124.67071929 389.41057189 -125.90430838 390.64337402 -127.13969612 391.87436867 C-128.81885437 393.54810286 -130.49179515 395.22780761 -132.16322327 396.90925598 C-132.65901652 397.40058779 -133.15480977 397.8919196 -133.66562706 398.39814025 C-136.27199058 400.75483571 -136.27199058 400.75483571 -137 404 C-137.5450673 404.21975022 -138.0901346 404.43950045 -138.65171909 404.66590977 C-141.76352785 406.43377053 -144.08059649 408.81843009 -146.57249451 411.34544373 C-147.39924867 412.17175131 -147.39924867 412.17175131 -148.24270493 413.01475197 C-150.08903224 414.86246862 -151.92811179 416.71723429 -153.76733398 418.57202148 C-155.08939911 419.89792479 -156.41192021 421.22337357 -157.73486328 422.54840088 C-160.58329694 425.40315893 -163.42859279 428.26099565 -166.2715435 431.12121391 C-170.76663126 435.64332468 -175.26931784 440.1578169 -179.77320862 444.67115784 C-190.14696536 455.06901594 -200.51069794 465.4768469 -210.87435913 475.88476562 C-220.36973039 485.420486 -229.86719549 494.95409528 -239.37278992 504.47962624 C-243.85006081 508.96686638 -248.32240789 513.45894009 -252.79106319 517.95475948 C-255.57205228 520.75066426 -258.35717589 523.54242207 -261.14344025 526.33306885 C-262.43477736 527.62815109 -263.72438379 528.92496166 -265.01212502 530.22361946 C-266.77032886 531.99625685 -268.53461339 533.76261534 -270.30052185 535.52757263 C-270.80850718 536.04274789 -271.31649252 536.55792314 -271.83987135 537.08870977 C-274.67859404 539.91109998 -277.4763875 542.09670574 -281 544 C-281.18138853 547.19969371 -280.93973316 549.92741167 -280 553 C-278.33418233 554.70724408 -278.33418233 554.70724408 -276.1489954 556.10822392 C-270.05809383 560.57868638 -264.86459128 565.86414816 -259.55357361 571.20591736 C-258.42016166 572.33845578 -257.28630973 573.47055403 -256.15205961 574.60225302 C-253.05526738 577.69459669 -249.96470652 580.79310184 -246.87517321 583.89269555 C-243.53537681 587.24116022 -240.18976996 590.58381076 -236.84487915 593.92718506 C-231.05662626 599.71439123 -225.2720352 605.50523661 -219.48994255 611.29859734 C-211.13008883 619.674732 -202.76469244 628.04531311 -194.39794988 636.41456599 C-180.82233625 649.99455265 -167.25119135 663.57899602 -153.68286133 677.16625977 C-140.50552267 690.36196737 -127.32607694 703.55556463 -114.14379883 716.74633789 C-113.33071355 717.55994862 -112.51762827 718.37355935 -111.67990404 719.21182495 C-107.60072274 723.29361639 -103.52150006 727.37536646 -99.44225681 731.45709598 C-65.62175266 765.29832043 -31.80850232 799.14678562 2 833 C2.72396137 832.27592341 3.44792273 831.55184682 4.19382232 830.80582851 C6.76133439 828.23863591 9.32981591 825.67242038 11.89884281 823.10674381 C12.87401696 822.13281588 13.84919092 821.15888775 14.82436472 820.18495947 C15.34078599 819.66920922 15.85720725 819.15345896 16.38927764 818.62207992 C19.2694119 815.74566858 22.14946638 812.86917736 25.02952576 809.99269104 C25.64842321 809.37456204 26.26732066 808.75643304 26.90497259 808.11957285 C55.3794899 779.68030292 83.84892733 751.2359534 112.31445006 722.7876806 C116.42631068 718.67832112 120.53821506 714.56900543 124.65014648 710.4597168 C125.4686888 709.6416991 126.28723111 708.82368141 127.13057774 707.98087531 C140.40378739 694.71638068 153.68052448 681.45542211 166.95855356 668.19575203 C180.59038073 654.58261589 194.21841911 640.9656955 207.84293503 627.34524196 C216.24750801 618.94341439 224.65503301 610.5445633 233.06634783 602.1494851 C238.8277345 596.39865549 244.58544307 590.64416046 250.34025306 584.88674969 C253.66171125 581.56400848 256.98478428 578.24292492 260.31223106 574.92617989 C263.35802862 571.8901071 266.39918005 568.84945984 269.43669581 565.80510198 C270.53647507 564.70447699 271.63795101 563.60554422 272.74128432 562.50848205 C274.24119338 561.01660414 275.73479036 559.51867244 277.22699833 558.01909733 C278.05815381 557.18870129 278.88930929 556.35830525 279.7456513 555.50274569 C284.71976861 550.02098097 284.71976861 550.02098097 286 543 C284.63294922 542.38511719 284.63294922 542.38511719 283.23828125 541.7578125 C280.04029529 540.0218732 278.47618003 538.64068913 276.1875 535.875 C271.75861693 530.74960882 267.05442783 525.96176275 262.25 521.1875 C261.51676514 520.45837402 260.78353027 519.72924805 260.02807617 518.97802734 C258.63642331 517.59607075 257.24365733 516.21523388 255.84960938 514.83569336 C254.28134194 513.27922519 252.72476804 511.71237791 251.171875 510.140625 C248.93562499 507.86826619 248.93562499 507.86826619 246 505.5625 C243.72712235 503.62108367 242.07841957 501.97840216 240.25 499.6875 C239.5075 498.800625 238.765 497.91375 238 497 C237.34 497 236.68 497 236 497 C235.74259033 496.41661865 235.48518066 495.8332373 235.2199707 495.23217773 C233.89466755 492.80727345 232.44772789 491.21960671 230.48046875 489.28515625 C229.78759766 488.59873047 229.09472656 487.91230469 228.38085938 487.20507812 C227.65705078 486.49802734 226.93324219 485.79097656 226.1875 485.0625 C225.11918945 484.00772461 225.11918945 484.00772461 224.02929688 482.93164062 C222.64552271 481.56578768 221.25953108 480.20217686 219.87109375 478.84106445 C218.28022657 477.2757292 216.70507797 475.6971647 215.13671875 474.109375 C213.04345476 471.9537719 213.04345476 471.9537719 210.625 470.1875 C208.44845878 468.37371565 206.81730638 466.70208731 205 464.5625 C201.55857805 460.54114885 197.91011403 456.75887989 194.1875 453 C193.61193359 452.41162354 193.03636719 451.82324707 192.44335938 451.21704102 C191.00128094 449.77133605 189.50463712 448.38047825 188 447 C187.34 447 186.68 447 186 447 C185.773125 446.4225 185.54625 445.845 185.3125 445.25 C184.10375091 442.86791081 184.10375091 442.86791081 181.8125 441.25 C179.50345353 439.40276282 177.88198795 437.7900639 176 435.5625 C172.55857805 431.54114885 168.91011403 427.75887989 165.1875 424 C164.61193359 423.41162354 164.03636719 422.82324707 163.44335938 422.21704102 C162.00128094 420.77133605 160.50463712 419.38047825 159 418 C158.34 418 157.68 418 157 418 C156.773125 417.4225 156.54625 416.845 156.3125 416.25 C154.66216522 413.42085466 152.56741423 412.01725404 150 410 C148.64613064 408.34997172 147.31321858 406.6825613 146 405 C143.64522105 402.52446315 141.341823 400.26086492 138.625 398.1875 C136.44303006 396.36919172 134.82653424 394.70025152 133.01171875 392.55078125 C128.75218046 387.63460127 124.20832242 383.02222227 119.60961914 378.42431641 C118.16718144 376.97965004 116.73298435 375.52710146 115.29882812 374.07421875 C113.93467773 372.70716797 113.93467773 372.70716797 112.54296875 371.3125 C111.3058313 370.06919922 111.3058313 370.06919922 110.04370117 368.80078125 C108.20388343 366.77963045 108.20388343 366.77963045 106 367 C105.77868408 366.4527124 105.55736816 365.9054248 105.3293457 365.34155273 C103.58424972 362.26768395 101.23405048 359.98694375 98.73046875 357.53515625 C98.21245193 357.01996933 97.69443512 356.50478241 97.16072083 355.97398376 C95.50763285 354.3320505 93.84773823 352.69719981 92.1875 351.0625 C91.08222129 349.96726191 89.97739872 348.87156329 88.87304688 347.77539062 C86.83118615 345.7498107 84.78665531 343.72701058 82.73901367 341.70727539 C80.14952547 339.14779284 77.57222245 336.57682072 75 334 C74.24665878 333.24853195 73.49331757 332.4970639 72.71714783 331.7228241 C69.81986646 328.81949015 66.94194221 325.89795617 64.06738281 322.97216797 C58.25356896 317.06030805 52.42449184 311.16374275 46.58656693 305.27569389 C43.06266446 301.72044557 39.54460502 298.15978598 36.0390625 294.58642578 C32.63598112 291.11796229 29.21827741 287.66453706 25.79012299 284.22085953 C24.49154686 282.91124745 23.19823855 281.59638893 21.91049957 280.27611923 C20.10426668 278.42606225 18.27983684 276.59591342 16.45019531 274.76904297 C15.92936371 274.22663971 15.4085321 273.68423645 14.87191772 273.12539673 C8.11497473 266.47773152 2.0167093 263.77526792 -5.52169609 270.5622921 Z M417.125 472.8125 C416.42375 473.534375 415.7225 474.25625 415 475 C414.26485867 475.41173657 413.52971733 475.82347313 412.77229899 476.24768656 C409.21106334 478.49867071 406.47706535 481.24503437 403.51821613 484.22451496 C402.8782176 484.86100742 402.23821907 485.49749988 401.57882664 486.15327999 C399.42704222 488.29573132 397.28246559 490.44525538 395.13777161 492.59480286 C393.58437702 494.14446217 392.03055003 495.69368814 390.47632712 497.2425167 C386.19995974 501.50662384 381.92988915 505.77698869 377.66082585 510.04840672 C373.05838694 514.65125302 368.45023525 519.24837387 363.84284973 523.8462677 C354.81507106 532.85698444 345.79329181 541.87368947 336.77349619 550.89239649 C329.44478945 558.2201845 322.1144868 565.54637235 314.78305626 572.87143517 C312.67353396 574.97916242 310.56401937 577.08689738 308.45450705 579.19463462 C307.93009605 579.71860352 307.40568506 580.24257242 306.86538281 580.78241917 C292.11399657 595.52149632 277.36481964 610.2627813 262.6200304 625.00845814 C262.06405546 625.56446424 261.50808052 626.12047034 260.93525785 626.6933251 C258.11727359 629.51147558 255.29930526 632.329642 252.48134045 635.14781193 C251.92166923 635.70752304 251.361998 636.26723415 250.78536705 636.8439062 C249.65357624 637.97577789 248.52178679 639.10765093 247.3899987 640.23952534 C229.77437871 657.8563713 212.15065396 675.46507402 194.52075195 693.06762695 C174.71989822 712.83777657 154.92579446 732.61465088 135.14121646 752.40108889 C133.03266631 754.5097883 130.92409024 756.61846178 128.81549644 758.72711754 C128.29629921 759.24633808 127.77710198 759.76555862 127.2421715 760.30051312 C118.87842605 768.66432017 110.50827444 777.0216877 102.13589681 785.37685264 C93.72628547 793.76953158 85.3243305 802.16981387 76.92959527 810.57737283 C72.37952662 815.1339933 67.82625017 819.68728481 63.2642746 824.231987 C59.09168378 828.38894046 54.92835799 832.55494078 50.77235421 836.72847565 C49.26386316 838.24005721 47.75195425 839.74823683 46.23638663 841.25272308 C44.1830116 843.29207041 42.14224856 845.34325451 40.10426044 847.39796162 C39.50770982 847.98457588 38.9111592 848.57119014 38.29653129 849.17558059 C34.89358387 852.63816434 33.4355659 855.28021888 32 860 C31.01 860.33 30.02 860.66 29 861 C30.24249022 864.72747065 31.79617937 865.09254996 35.11856461 866.88160515 C38.06971838 868.63588021 40.40113827 870.99108384 42.79248047 873.42016602 C43.32524597 873.94928085 43.85801147 874.47839569 44.40692139 875.02354431 C46.15113319 876.75970914 47.88432849 878.5064159 49.6171875 880.25390625 C50.84064441 881.47788281 52.06462223 882.70133887 53.28909302 883.92430115 C55.85064168 886.4859393 58.40696856 889.05264113 60.95947266 891.62329102 C64.20414844 894.89054426 67.45966121 898.14672769 70.71902275 901.39932346 C73.24872674 903.92565584 75.77335774 906.45700983 78.29648209 908.98991203 C79.49345774 910.19069339 80.69173206 911.39018183 81.89141464 912.58825874 C89.05706838 919.75230909 95.70869889 927.04404044 102 935 C103.55932302 936.55932302 105.08855897 936.3943084 107.25 936.5625 C108.01828125 936.64628906 108.7865625 936.73007813 109.578125 936.81640625 C112.54625295 935.81585989 112.72596331 935.08091256 114.22269845 932.42011607 C116.94774901 927.89716094 120.2020341 924.24916764 123.8586998 920.46173668 C124.51511423 919.77221282 125.17152867 919.08268895 125.84783445 918.37227043 C132.88060292 911.01514456 140.05812946 903.80237932 147.26080322 896.61221313 C148.73612523 895.13573543 150.21122975 893.65904039 151.68613887 892.18215024 C155.69178754 888.17237052 159.70049562 884.16566229 163.70976853 880.1595068 C168.0508745 875.8206801 172.38908131 871.4789562 176.72767639 867.13761902 C184.71657135 859.1445508 192.7077195 851.15374063 200.7000744 843.16413248 C208.07796691 835.78876297 215.45492011 828.41245553 222.83095551 821.03522873 C223.56698546 820.29908419 223.56698546 820.29908419 224.31788471 819.54806805 C226.30997182 817.55566959 228.3020554 815.5632676 230.29413319 813.57085982 C248.93811439 794.92382696 267.58499798 776.27969892 286.23320132 757.63688858 C302.79968659 741.07515779 319.36357147 724.51083046 335.92529297 707.94433594 C354.55528144 689.30899624 373.18687972 670.67526847 391.82109046 652.04415071 C393.80567471 650.05988717 395.79025502 648.07561969 397.77483368 646.09135056 C398.50776165 645.3585412 398.50776165 645.3585412 399.25549624 644.61092762 C406.63693199 637.23062979 414.01713234 629.84909809 421.39673615 622.46696854 C429.77667437 614.0841764 438.15843491 605.70321111 446.54246971 597.32451572 C450.82156893 593.04805166 455.09985159 588.77077888 459.3759861 584.49135017 C463.28519532 580.57917481 467.19668072 576.66929075 471.1100435 572.76127033 C472.52975934 571.34267718 473.94862123 569.92322883 475.36656931 568.50286873 C477.28495798 566.58146561 479.20636048 564.66312905 481.12858963 562.74556923 C481.68596351 562.18585418 482.24333739 561.62613914 482.81760138 561.04946303 C485.12293933 558.75540272 487.28321872 556.81118752 490 555 C490.78670551 552.74239143 490.78670551 552.74239143 491 550 C491.13042191 548.92637711 491.26084381 547.85275421 491.3952179 546.74659729 C490.85055731 541.58330913 488.64263777 539.71731112 484.98901367 536.24194336 C484.0306385 535.28926323 484.0306385 535.28926323 483.05290222 534.31733704 C480.94029863 532.22487788 478.80435157 530.15799421 476.66796875 528.08984375 C475.19368372 526.63624407 473.72115757 525.1808585 472.25032043 523.72377014 C468.37483636 519.89199963 464.48014478 516.08040263 460.57977295 512.27398682 C454.34314479 506.18279246 448.13232372 500.06543007 441.92864418 493.94070625 C439.76069854 491.80709479 437.58239721 489.68450108 435.40263367 487.56297302 C434.06782937 486.25185807 432.73332543 484.94043725 431.39916992 483.62866211 C430.79280701 483.04408234 430.18644409 482.45950256 429.56170654 481.85720825 C426.1701924 478.50201922 423.8981431 475.46164864 422 471 C418.92485573 470.65248895 418.92485573 470.65248895 417.125 472.8125 Z " fill="#000000" transform="translate(643,91)"/>
<path d="M0 0 C2.00720923 0.28674418 4.0085944 0.61866701 6 1 C5.67 4.96 5.34 8.92 5 13 C3.35 12.67 1.7 12.34 0 12 C-0.19401633 10.18818595 -0.38004375 8.37551468 -0.5625 6.5625 C-0.66691406 5.55316406 -0.77132812 4.54382813 -0.87890625 3.50390625 C-0.91886719 2.67761719 -0.95882812 1.85132813 -1 1 C-0.67 0.67 -0.34 0.34 0 0 Z " fill="#484E56" transform="translate(101,632)"/>
<path d="M0 0 C0.66 0 1.32 0 2 0 C2 4.29 2 8.58 2 13 C-2 14 -2 14 -4 13 C-3.88637738 11.5199159 -3.75877092 10.04089926 -3.625 8.5625 C-3.55539062 7.73878906 -3.48578125 6.91507813 -3.4140625 6.06640625 C-3.20910156 5.04353516 -3.20910156 5.04353516 -3 4 C-2.34 3.67 -1.68 3.34 -1 3 C-0.67 2.01 -0.34 1.02 0 0 Z " fill="#11141A" transform="translate(1137,633)"/>
<path d="M0 0 C1.98 0.495 1.98 0.495 4 1 C4.33 2.98 4.66 4.96 5 7 C2.50907189 8.24546405 1.58919267 7.7767578 -1 7 C-0.67 4.69 -0.34 2.38 0 0 Z " fill="#2A2C2E" transform="translate(643,91)"/>
<path d="M0 0 C0.66 0.99 1.32 1.98 2 3 C1.34 4.32 0.68 5.64 0 7 C0 6.34 0 5.68 0 5 C-1.32 5 -2.64 5 -4 5 C-4 4.34 -4 3.68 -4 3 C-3.34 3 -2.68 3 -2 3 C-2 2.34 -2 1.68 -2 1 C-1.34 0.67 -0.68 0.34 0 0 Z " fill="#181B19" transform="translate(1188,637)"/>
<path d="M0 0 C1.32 0 2.64 0 4 0 C4 1.65 4 3.3 4 5 C2.68 4.67 1.36 4.34 0 4 C0 2.68 0 1.36 0 0 Z " fill="#232526" transform="translate(643,1183)"/>
<path d="M0 0 C0 0.66 0 1.32 0 2 C0.66 2.33 1.32 2.66 2 3 C1 4 1 4 -2.0625 4.0625 C-3.5165625 4.0315625 -3.5165625 4.0315625 -5 4 C-4.67 3.01 -4.34 2.02 -4 1 C-2 0 -2 0 0 0 Z " fill="#0F1612" transform="translate(1059,562)"/>
<path d="M0 0 C0.66 0.33 1.32 0.66 2 1 C2 2.65 2 4.3 2 6 C0.68 5.67 -0.64 5.34 -2 5 C-1.34 3.35 -0.68 1.7 0 0 Z " fill="#0B0C10" transform="translate(1135,636)"/>
</svg>
